<svg id="Vector_Graphics" data-name="Vector Graphics" xmlns="http://www.w3.org/2000/svg" viewBox="0 0 49.18 57.33"><defs><style>.cls-1{fill:#101113;}</style></defs><title>apple-logo</title><path class="cls-1" d="M157.22,125s-1.06-4.42,3.17-9.52,8.55-4.13,8.55-4.13,0.29,6.25-2.69,9.23C162,125.6,157.22,125,157.22,125Z" transform="translate(-133.03 -111.31)"/><path class="cls-1" d="M159.14,126.95s6-3.27,11.63-2.4c0,0,6.25.58,9.9,5.67a13.67,13.67,0,0,0-6.54,11.53s-0.58,6.73,8.07,11.53c-1.25,6.63-10.28,14.22-10.28,14.22s-1.92,1.83-5.48.77-6.73-2.21-8-2.21a23.12,23.12,0,0,0-6.1,1.68,7.83,7.83,0,0,1-5.62.62c-3.08-.86-5.38-3.94-5.38-3.94s-5.67-8-7.59-14.9c0,0-2.88-12.4,2.69-19.41s12.3-5.86,12.3-5.86,5.77,0.86,8.36,2.59A3.57,3.57,0,0,0,159.14,126.95Z" transform="translate(-133.03 -111.31)"/></svg>